<svg width="206" height="36" viewBox="0 0 206 36" xmlns="http://www.w3.org/2000/svg"><path d="M39.4 15h6c2.8 0 4.4 2 4.4 4.2s-1.6 4.2-4.4 4.2H42V28h-2.8V15h.2zm5.8 2.4h-3V21h3c1 0 2-.6 2-1.8-.2-1.2-1-1.8-2-1.8zm9.4-2.4h2.8v13h-2.8zm7.6 6.4c0-4 3-6.8 6.8-6.8 3 0 4.6 1.6 5.6 3.2L72.2 19c-.6-1-1.8-1.8-3.2-1.8-2.2 0-4 1.8-4 4.2 0 2.4 1.8 4.2 4 4.2 1.4 0 2.6-.8 3.2-1.8l2.4 1.2c-1 1.6-2.6 3.2-5.6 3.2-3.6 0-6.8-2.8-6.8-6.8zm19-4h-3.8V15h10.4v2.4H84V28h-2.8V17.4zM92.6 15h2.8v7.6c0 1.8 1 3 3 3s3-1.2 3-3V15h2.8v7.8c0 3.2-1.8 5.4-5.8 5.4s-5.8-2.2-5.8-5.4V15zm23.2 8.2h-2V28H111V15h6c2.8 0 4.4 1.8 4.4 4.2 0 2.2-1.4 3.6-2.8 3.8l3 5h-3.2l-2.6-4.8zm1-5.8H114V21h2.8c1.2 0 2-.6 2-1.8-.2-1.2-1-1.8-2-1.8zm11.8-2.4h9.2v2.4h-6.4v2.8h6.2v2.4h-6.2v3h6.4V28h-9.2zm16.4 0h6c2.8 0 4.4 2 4.4 4.2s-1.6 4.2-4.4 4.2h-3.4V28H145V15zm5.6 2.4h-3V21h3c1 0 2-.6 2-1.8 0-1.2-1-1.8-2-1.8zm17.2 8.2H162l-.8 2.4h-3l5-13h3.4l5 13h-3l-.8-2.4zm-5.2-2.4h4.4l-2.2-6-2.2 6zm19.2 0h-2V28H177V15h6c2.8 0 4.4 1.8 4.4 4.2 0 2.2-1.4 3.6-2.8 3.8l3 5h-3.2l-2.6-4.8zm.8-5.8h-2.8V21h2.8c1.2 0 2-.6 2-1.8 0-1.2-.8-1.8-2-1.8zm15.2 5.4l-1 1.2v4H194V15h2.8v5.8l4.6-5.8h3.4l-5.2 6 5.6 6.8h-3.4zM.8 14c0-.4.2-.8.4-1L12.8 1.4c.6-.6 1.4-.6 2 0l9 9c1.6 1.6 2.6 3.8 2.6 6 0 1.8-.6 3.6-1.6 5 1 1.4 1.6 3.2 1.6 5 0 4.6-3.8 8.4-8.4 8.4-2.2 0-4.2-.8-5.8-2.2l-.2-.2s-.2 0-.2-.2l-3-3-5.6 5.6c-.2.2-.6.4-1 .4-.2 0-.4 0-.6-.2-.6-.2-.8-.8-.8-1.2v-10c0-.4.2-.8.4-1l11.6-11.6c.2-.2.6-.4 1-.4s.8.2 1 .4l4.2 4.2c.6.6.6 1.4 0 2-.6.6-1.4.6-2 0l-3.2-3.2L3.6 24.4v6.2l4.2-4.2c.6-.6 1.4-.6 2 0l4.4 4.4c1 1 2.4 1.6 3.8 1.6 3.2 0 5.8-2.6 5.8-5.8 0-1.2-.4-2.2-1-3-1.4 1-3 1.6-4.8 1.6-2.2 0-4.2-.8-5.8-2.2-.6-.6-.6-1.4 0-2 .6-.6 1.4-.6 2 0 1 1 2.4 1.6 3.8 1.6 3.2 0 5.8-2.6 5.8-5.8 0-1.6-.6-3-1.8-4.2l-.2-.2-8-8L3.6 14.6v3L.8 20.4V14z" id="MainLogo"></path></svg>